<svg height="512pt" viewBox="0 0 512 512" width="512pt" xmlns="http://www.w3.org/2000/svg"><path d="m8.53125 512c-3.449219 0-6.5625-2.078125-7.882812-5.269531-1.320313-3.1875-.5898442-6.855469 1.851562-9.296875l119.464844-119.464844c3.347656-3.234375 8.671875-3.191406 11.960937.101562 3.292969 3.292969 3.339844 8.613282.105469 11.960938l-119.464844 119.46875c-1.601562 1.601562-3.773437 2.5-6.035156 2.5zm0 0" fill="#35495e"/><path d="m503.464844 332.800781h-162.132813c-4.714843 0-8.535156-3.820312-8.535156-8.535156 0-4.710937 3.820313-8.53125 8.535156-8.53125h162.132813c4.714844 0 8.535156 3.820313 8.535156 8.53125 0 4.714844-3.820312 8.535156-8.535156 8.535156zm0 0" fill="#35495e"/><path d="m187.730469 179.199219c-4.710938 0-8.53125-3.820313-8.53125-8.53125v-162.132813c0-4.714844 3.820312-8.535156 8.53125-8.535156 4.714843 0 8.535156 3.820312 8.535156 8.535156v162.132813c0 4.710937-3.820313 8.53125-8.535156 8.53125zm0 0" fill="#35495e"/><path d="m187.730469 153.601562-76.796875 76.796876v170.667968h170.664062l76.800782-76.800781v-170.664063zm0 0" fill="#955ba5"/><path d="m110.933594 230.398438h170.664062v170.667968h-170.664062zm0 0" fill="#894b9d"/><path d="m358.398438 153.601562-76.800782 76.796876h-170.664062l76.796875-76.796876zm0 0" fill="#b49aca"/><path d="m358.398438 153.601562v170.664063l-76.800782 76.800781v-170.667968zm0 0" fill="#955ba5"/><g fill="#f0c419"><path d="m247.464844 51.199219c-2.851563 0-5.515625-1.421875-7.097656-3.796875l-17.070313-25.601563c-1.691406-2.535156-1.902344-5.78125-.550781-8.515625 1.351562-2.734375 4.058594-4.539062 7.101562-4.734375 3.042969-.199219 5.957032 1.242188 7.652344 3.78125l9.964844 14.976563 9.96875-14.953125c2.613281-3.921875 7.914062-4.980469 11.835937-2.363281 3.917969 2.617187 4.976563 7.914062 2.363281 11.835937l-17.066406 25.601563c-1.589844 2.363281-4.253906 3.777343-7.101562 3.769531zm0 0"/><path d="m247.464844 68.265625c-4.710938 0-8.53125-3.820313-8.53125-8.53125v-17.066406c0-4.714844 3.820312-8.535157 8.53125-8.535157 4.714844 0 8.535156 3.820313 8.535156 8.535157v17.066406c0 4.710937-3.820312 8.53125-8.535156 8.53125zm0 0"/><path d="m128 512h-34.136719c-3.28125 0-6.269531-1.878906-7.691406-4.835938-1.421875-2.957031-1.023437-6.46875 1.027344-9.03125l23.042969-28.800781h-16.378907c-4.710937 0-8.53125-3.820312-8.53125-8.53125 0-4.714843 3.820313-8.535156 8.53125-8.535156h34.136719c3.28125 0 6.269531 1.878906 7.691406 4.835937 1.421875 2.960938 1.023438 6.46875-1.027344 9.03125l-23.042968 28.800782h16.378906c4.710938 0 8.53125 3.820312 8.53125 8.53125 0 4.714844-3.820312 8.535156-8.53125 8.535156zm0 0"/><path d="m460.796875 409.601562c-3.277344-.003906-6.265625-1.886718-7.6875-4.84375-1.417969-2.957031-1.015625-6.464843 1.03125-9.023437l34.136719-42.667969c1.902344-2.378906 4.933594-3.5625 7.949218-3.105468 3.015626.460937 5.554688 2.492187 6.664063 5.335937 1.109375 2.839844.621094 6.054687-1.285156 8.4375l-34.132813 42.664063c-1.625 2.027343-4.078125 3.207031-6.675781 3.203124zm0 0"/><path d="m494.933594 409.601562c-2.597656.003907-5.054688-1.175781-6.675782-3.203124l-34.132812-42.664063c-1.90625-2.382813-2.394531-5.597656-1.285156-8.4375 1.109375-2.84375 3.648437-4.875 6.664062-5.335937 3.015625-.457032 6.046875.726562 7.949219 3.105468l34.132813 42.667969c2.050781 2.558594 2.453124 6.066406 1.035156 9.023437-1.421875 2.957032-4.410156 4.839844-7.6875 4.84375zm0 0"/></g><path d="m153.597656 315.734375v85.332031h-17.066406v-85.332031c0-4.714844 3.820312-8.535156 8.535156-8.535156 4.710938 0 8.53125 3.820312 8.53125 8.535156zm0 0" fill="#3d324c"/><path d="m187.730469 349.867188v51.199218h-17.066407v-51.199218c0-4.714844 3.820313-8.535157 8.535157-8.535157 4.710937 0 8.53125 3.820313 8.53125 8.535157zm0 0" fill="#3d324c"/><path d="m221.863281 375.464844v25.601562h-17.066406v-25.601562c0-4.710938 3.820313-8.53125 8.535156-8.53125 4.710938 0 8.53125 3.820312 8.53125 8.53125zm0 0" fill="#3d324c"/></svg>