<?xml version="1.0"?>
<svg xmlns="http://www.w3.org/2000/svg" xmlns:xlink="http://www.w3.org/1999/xlink" xmlns:svgjs="http://svgjs.com/svgjs" version="1.1" width="512" height="512" x="0" y="0" viewBox="0 0 512 512" style="enable-background:new 0 0 512 512" xml:space="preserve"><g><path xmlns="http://www.w3.org/2000/svg" d="m144.601562 190.667969h-41.769531c-8.28125 0-15-6.71875-15-15v-63.199219c0-8.285156 6.71875-15 15-15h41.769531c8.28125 0 15 6.714844 15 15v63.199219c0 8.28125-6.71875 15-15 15zm0 0" fill="#ffffff" data-original="#ffffff" style=""/><path xmlns="http://www.w3.org/2000/svg" d="m144.601562 97.46875h-20.882812v93.199219h20.882812c8.28125 0 15-6.71875 15-15v-63.199219c0-8.285156-6.71875-15-15-15zm0 0" fill="#fff6ed" data-original="#fff6ed" style=""/><path xmlns="http://www.w3.org/2000/svg" d="m72.832031 190.667969h-41.765625c-8.285156 0-15-6.71875-15-15v-96.402344c0-8.28125 6.714844-15 15-15h41.765625c8.285157 0 15 6.71875 15 15v96.402344c0 8.28125-6.714843 15-15 15zm0 0" fill="#ffbf50" data-original="#ffbf50" style=""/><path xmlns="http://www.w3.org/2000/svg" d="m144.601562 0h-41.769531c-8.28125 0-15 6.714844-15 15v97.46875h71.769531v-97.46875c0-8.285156-6.71875-15-15-15zm0 0" fill="#ffbf50" data-original="#ffbf50" style=""/><path xmlns="http://www.w3.org/2000/svg" d="m159.601562 112.46875v-97.46875c0-8.285156-6.71875-15-15-15h-20.882812v112.46875zm0 0" fill="#ffa028" data-original="#ffa028" style=""/><path xmlns="http://www.w3.org/2000/svg" d="m72.832031 190.667969c8.285157 0 15-6.71875 15-15v-96.402344c0-8.28125-6.714843-15-15-15h-20.882812v126.402344zm0 0" fill="#ffa028" data-original="#ffa028" style=""/><path xmlns="http://www.w3.org/2000/svg" d="m216.367188 190.667969h-41.765626c-8.285156 0-15-6.71875-15-15v-96.402344c0-8.28125 6.714844-15 15-15h41.765626c8.285156 0 15 6.71875 15 15v96.402344c0 8.28125-6.714844 15-15 15zm0 0" fill="#ffbf50" data-original="#ffbf50" style=""/><path xmlns="http://www.w3.org/2000/svg" d="m288.132812 190.667969h-41.765624c-8.285157 0-15-6.71875-15-15v-96.402344c0-8.28125 6.714843-15 15-15h41.765624c8.285157 0 15 6.71875 15 15v96.402344c0 8.28125-6.714843 15-15 15zm0 0" fill="#ffbf50" data-original="#ffbf50" style=""/><path xmlns="http://www.w3.org/2000/svg" d="m216.367188 190.667969c8.285156 0 15-6.71875 15-15v-96.402344c0-8.28125-6.714844-15-15-15h-20.882813v126.402344zm0 0" fill="#ffa028" data-original="#ffa028" style=""/><path xmlns="http://www.w3.org/2000/svg" d="m288.132812 190.667969c8.285157 0 15-6.71875 15-15v-96.402344c0-8.28125-6.714843-15-15-15h-20.882812v126.402344zm0 0" fill="#ffa028" data-original="#ffa028" style=""/><path xmlns="http://www.w3.org/2000/svg" d="m304.199219 128.53125h-48.199219c-3.980469 0-7.789062 1.578125-10.609375 4.398438l-27.742187 27.742187h-116.097657l-27.742187-27.742187c-2.820313-2.820313-6.628906-4.398438-10.609375-4.398438h-48.199219c-8.28125 0-15 6.71875-15 15v81.398438c0 8.289062 6.71875 15 15 15h289.199219c8.28125 0 15-6.710938 15-15v-81.398438c0-8.28125-6.71875-15-15-15zm0 0" fill="#ffe1ca" data-original="#ffe1ca" style=""/><path xmlns="http://www.w3.org/2000/svg" d="m304.199219 128.53125h-48.199219c-3.980469 0-7.789062 1.578125-10.609375 4.398438l-27.742187 27.742187h-58.046876v79.257813h144.597657c8.28125 0 15-6.710938 15-15v-81.398438c0-8.28125-6.71875-15-15-15zm0 0" fill="#ffcca7" data-original="#ffcca7" style=""/><path xmlns="http://www.w3.org/2000/svg" d="m0 224.929688v272.070312c0 8.285156 6.714844 15 15 15h289.199219c8.285156 0 15-6.714844 15-15v-272.070312zm0 0" fill="#ff1f33" data-original="#ff1f33" style=""/><path xmlns="http://www.w3.org/2000/svg" d="m159.601562 512h144.597657c8.285156 0 15-6.714844 15-15v-272.070312h-159.597657zm0 0" fill="#b91028" data-original="#b91028" style=""/><path xmlns="http://www.w3.org/2000/svg" d="m239.933594 351.332031h-160.667969c-8.28125 0-15-6.714843-15-15 0-8.28125 6.71875-15 15-15h160.667969c8.285156 0 15 6.71875 15 15 0 8.285157-6.714844 15-15 15zm0 0" fill="#ffbf50" data-original="#ffbf50" style=""/><path xmlns="http://www.w3.org/2000/svg" d="m207.800781 415.601562h-96.402343c-8.28125 0-15-6.71875-15-15 0-8.285156 6.71875-15 15-15h96.402343c8.285157 0 15 6.714844 15 15 0 8.28125-6.714843 15-15 15zm0 0" fill="#ffbf50" data-original="#ffbf50" style=""/><g xmlns="http://www.w3.org/2000/svg" fill="#ffa028"><path d="m239.933594 321.332031h-80.332032v30h80.332032c8.285156 0 15-6.714843 15-15 0-8.28125-6.714844-15-15-15zm0 0" fill="#ffa028" data-original="#ffa028" style=""/><path d="m207.800781 385.601562h-48.199219v30h48.199219c8.285157 0 15-6.71875 15-15 0-8.285156-6.714843-15-15-15zm0 0" fill="#ffa028" data-original="#ffa028" style=""/></g></g></svg>
