<?xml version="1.0"?>
<svg xmlns="http://www.w3.org/2000/svg" xmlns:xlink="http://www.w3.org/1999/xlink" xmlns:svgjs="http://svgjs.com/svgjs" version="1.1" width="512" height="512" x="0" y="0" viewBox="0 0 512 512" style="enable-background:new 0 0 512 512" xml:space="preserve"><g><path xmlns="http://www.w3.org/2000/svg" d="m479.994 165.624c3.971 16.512 6.023 33.601 6.013 51-.019 32.956-7.859 65.131-23.304 95.632-18.119 35.783-27.696 76.558-27.696 117.915v81.829h-40v-81.829c0-47.605 11.069-94.628 32.011-135.985 12.585-24.854 18.975-50.958 18.989-77.584.007-12.517-1.318-24.737-3.821-36.537 3.116-.94 6.181-1.898 9.142-2.891 10.534-3.532 20.057-7.372 28.666-11.55zm-386.987 207.376v-97h-41.559c-.37 0-1.354 0-2.059-1.156-.705-1.155-.255-2.03-.085-2.359l46.917-91.117c-14.188-4.083-26.786-8.638-37.926-13.722l-44.554 86.527c-6.825 13.255-6.266 28.769 1.497 41.499 7.765 12.728 21.3 20.328 36.21 20.328h1.559v57c0 33.084 26.916 60 60 60h59v79h40v-119h-99c-11.028 0-20-8.972-20-20zm332.171-354.381c-42.516-12.007-98.689-18.619-158.171-18.619s-115.655 6.612-158.171 18.619c-51.644 14.585-77.829 35.573-77.829 62.381s26.186 47.796 77.829 62.381c30.659 8.658 68.421 14.51 109.404 17.102l-24.376 24.375 28.285 28.284 73.142-73.142-73.142-73.142-28.285 28.284 25.314 25.314c-34.537-2.267-66.534-6.979-92.964-13.812-39.617-10.24-52.897-21.667-55.035-25.644 2.139-3.977 15.418-15.404 55.036-25.645 38.307-9.902 88.307-15.355 140.792-15.355s102.485 5.453 140.792 15.355c39.629 10.244 52.897 21.669 55.03 25.642-1.852 3.355-12.35 12.871-42.78 22.199-23.377 7.166-53.232 12.586-86.042 15.715v40.169c40.261-3.614 76.717-10.486 104.609-19.834 42.727-14.32 64.391-33.917 64.391-58.247 0-26.807-26.186-47.795-77.829-62.38z" fill="#000000" data-original="#000000" style=""/></g></svg>
