<svg viewBox="0 -28 512.00089 512" xmlns="http://www.w3.org/2000/svg"><path d="m497.929688 210.113281-31.816407 20.109375 15.609375 9.90625c-30.917968 48.328125-85.246094 94.550782-153.683594 153.082032-45.921874 38.722656-48.925781 42.324218-72.039062 61.832031-23.113281-19.507813-26.113281-23.109375-72.039062-61.832031-68.433594-58.53125-122.765626-104.757813-153.679688-153.082032l19.207031-13.808594-35.417969-16.207031c-9.605468-22.210937-15.109374-45.625-13.90625-71.4375 3.601563-77.140625 63.433594-138.074219 134.570313-138.675781h1.199219c60.636718 0 99.65625 42.324219 120.066406 80.445312 20.410156-38.421874 59.730469-80.144531 121.261719-80.445312 71.140625.601562 130.972656 61.535156 134.574219 138.675781 1.203124 25.8125-4.300782 49.226563-13.90625 71.4375zm0 0" fill="#ff5b5b"/><path d="m497.929688 210.113281-31.816407 20.109375 15.609375 9.90625c-30.917968 48.328125-85.246094 94.550782-153.683594 153.082032-45.921874 38.722656-48.925781 42.324218-72.039062 61.832031v-374.597657c20.414062-38.421874 59.734375-80.144531 121.265625-80.445312 71.136719.601562 130.96875 61.535156 134.570313 138.675781 1.203124 25.8125-4.300782 49.226563-13.90625 71.4375zm0 0" fill="#ff001e"/><path d="m497.929688 210.113281c-4.199219 10.203125-9.605469 20.109375-16.207032 30.015625h-216.417968l-40.820313 81.644532-57.332031-143.175782-20.410156 61.53125h-116.460938c-6.605469-9.90625-12.007812-19.8125-16.210938-30.015625h111.0625l39.621094-118.5625 62.730469 156.984375 19.210937-38.421875zm0 0" fill="#e2e2e7"/><path d="m497.929688 210.113281c-4.199219 10.203125-9.605469 20.109375-16.207032 30.015625h-216.417968l-9.304688 18.609375v-48.625zm0 0" fill="#d3d3d8"/></svg>