<svg id="Layer_1" enable-background="new 0 0 512.014 512.014" height="512" viewBox="0 0 512.014 512.014" width="512" xmlns="http://www.w3.org/2000/svg"><path d="m40.312 272.491c-.169.329-.62 1.204.085 2.36s1.688 1.156 2.059 1.156h41.558v97c0 11.028 8.972 20 20 20h99v119h-40v-79h-59c-33.084 0-60-26.916-60-60v-57h-1.558c-14.91 0-28.446-7.6-36.209-20.329s-8.323-28.243-1.498-41.499l45.237-87.852c11.376-46.26 38.064-88.208 75.353-118.352 38.719-31.3 87.186-48.327 136.525-47.963 57.515.432 111.551 23.152 152.153 63.976 23.934 24.064 41.523 52.751 51.944 84.018h-42.873c-26.731-62.91-89.605-107.456-162.074-108-81.063 0-153.974 57.794-172.666 137.877zm328.702 127.516c-11.046 0-20 8.954-20 20s8.954 20 20 20 20-8.954 20-20-8.954-20-20-20zm94-212v40h49v-40zm0 110h49v-40h-49zm-30 57.25c17.049 17.388 27 40.951 27 64.75 0 50.729-41.271 92-92 92s-92-41.271-92-92c0-23.757 9.923-47.293 26.929-64.674l.071-122.337c0-35.83 29.159-64.988 65-64.988s65 29.159 65 65zm-13 64.75c0-15.203-7.378-30.373-19.736-40.579l-7.264-6v-140.421c0-13.785-11.215-25-25-25s-25 11.215-25 25l-.082 140.474-7.238 5.995c-12.323 10.206-19.68 25.357-19.68 40.531 0 28.673 23.327 52 52 52s52-23.327 52-52zm43-52h49v-40h-49z"/></svg>