<?xml version="1.0" encoding="UTF-8" standalone="no"?>
<svg
   xmlns:dc="http://purl.org/dc/elements/1.1/"
   xmlns:cc="http://creativecommons.org/ns#"
   xmlns:rdf="http://www.w3.org/1999/02/22-rdf-syntax-ns#"
   xmlns:svg="http://www.w3.org/2000/svg"
   xmlns="http://www.w3.org/2000/svg"
   xmlns:sodipodi="http://sodipodi.sourceforge.net/DTD/sodipodi-0.dtd"
   xmlns:inkscape="http://www.inkscape.org/namespaces/inkscape"
   width="40mm"
   height="40mm"
   viewBox="0 0 40 40"
   version="1.1"
   id="svg8"
   inkscape:version="1.0.2-2 (e86c870879, 2021-01-15)"
   sodipodi:docname="pain_level_9.svg">
  <defs
     id="defs2" />
  <sodipodi:namedview
     id="base"
     pagecolor="#ffffff"
     bordercolor="#666666"
     borderopacity="1.0"
     inkscape:pageopacity="0.0"
     inkscape:pageshadow="2"
     inkscape:zoom="2.9576319"
     inkscape:cx="19.809911"
     inkscape:cy="45.626239"
     inkscape:document-units="mm"
     inkscape:current-layer="layer1"
     inkscape:document-rotation="0"
     showgrid="false"
     inkscape:window-width="1647"
     inkscape:window-height="1030"
     inkscape:window-x="64"
     inkscape:window-y="0"
     inkscape:window-maximized="0"
     inkscape:snap-grids="true" />
  <metadata
     id="metadata5">
    <rdf:RDF>
      <cc:Work
         rdf:about="">
        <dc:format>image/svg+xml</dc:format>
        <dc:type
           rdf:resource="http://purl.org/dc/dcmitype/StillImage" />
        <dc:title></dc:title>
      </cc:Work>
    </rdf:RDF>
  </metadata>
  <g
     inkscape:label="Calque 1"
     inkscape:groupmode="layer"
     id="layer1"
     transform="translate(-81.252411,-79.910545)">
    <circle
       style="fill:#bc0000;stroke-width:0.269374"
       id="path52"
       cx="101.25241"
       cy="99.910545"
       r="20" />
    <path
       id="path1707"
       style="fill:#ffffff;stroke-width:1.73292;stroke-linecap:round;stroke-miterlimit:4;stroke-dasharray:none"
       d="m 114.48603,99.238349 c 0.39415,1.029301 -0.12254,2.183931 -1.15407,2.578931 -1.03152,0.395 -2.18726,-0.11919 -2.58141,-1.14849 -0.39416,-1.029291 0.77717,-2.420291 0.61456,-3.987801 0.89667,1.234862 2.72677,1.52807 3.12092,2.55736 z"
       sodipodi:nodetypes="ssscs" />
    <path
       id="path1716"
       style="fill:#000000;fill-opacity:1;stroke:none;stroke-width:1.5;stroke-linecap:round;stroke-miterlimit:4;stroke-dasharray:none"
       d="m 109.75995,106.64196 a 8.4537649,8.4537649 0 0 1 -8.45377,8.45377 8.4537649,8.4537649 0 0 1 -8.453762,-8.45377 8.4537649,8.4537649 0 0 1 8.453762,-8.453765 8.4537649,8.4537649 0 0 1 8.45377,8.453765 z" />
    <path
       style="fill:none;fill-opacity:1;stroke:#000000;stroke-width:1.52924;stroke-linecap:round;stroke-linejoin:miter;stroke-miterlimit:4;stroke-dasharray:none;stroke-opacity:1"
       d="m 105.66676,91.966231 c 0,0 1.07624,-1.493366 2.44562,-1.262968 1.35675,0.228276 1.8864,1.988128 1.8864,1.988128"
       id="path213-8"
       sodipodi:nodetypes="csc" />
    <path
       style="fill:none;fill-opacity:1;stroke:#000000;stroke-width:1.55047;stroke-linecap:round;stroke-linejoin:miter;stroke-miterlimit:4;stroke-dasharray:none;stroke-opacity:1"
       d="m 97.324188,91.962711 c 0,0 -1.118115,-1.477614 -2.540769,-1.249647 -1.40954,0.225869 -1.9598,1.967157 -1.9598,1.967157"
       id="path213-8-5"
       sodipodi:nodetypes="csc" />
    <path
       id="path1707-1"
       style="fill:#ffffff;stroke-width:1.73292;stroke-linecap:round;stroke-miterlimit:4;stroke-dasharray:none"
       d="m 86.368199,102.66874 c -0.39415,1.0293 0.12254,2.18393 1.15407,2.57893 1.03152,0.395 2.18726,-0.11919 2.58141,-1.14849 0.39416,-1.02929 -0.77717,-2.4203 -0.61456,-3.98781 -0.89667,1.23486 -2.72677,1.52807 -3.12092,2.55737 z"
       sodipodi:nodetypes="ssscs" />
  </g>
</svg>
