<?xml version="1.0" encoding="UTF-8" standalone="no"?>
<svg
   xmlns:osb="http://www.openswatchbook.org/uri/2009/osb"
   xmlns:dc="http://purl.org/dc/elements/1.1/"
   xmlns:cc="http://creativecommons.org/ns#"
   xmlns:rdf="http://www.w3.org/1999/02/22-rdf-syntax-ns#"
   xmlns:svg="http://www.w3.org/2000/svg"
   xmlns="http://www.w3.org/2000/svg"
   xmlns:xlink="http://www.w3.org/1999/xlink"
   xmlns:sodipodi="http://sodipodi.sourceforge.net/DTD/sodipodi-0.dtd"
   xmlns:inkscape="http://www.inkscape.org/namespaces/inkscape"
   version="1.1"
   width="502.69159"
   height="485.39963"
   x="0"
   y="0"
   viewBox="0 0 502.69061 485.39868"
   xml:space="preserve"
   class=""
   id="svg130"
   sodipodi:docname="coffee_7.svg"
   inkscape:version="1.0.2-2 (e86c870879, 2021-01-15)"><metadata
     id="metadata136"><rdf:RDF><cc:Work
         rdf:about=""><dc:format>image/svg+xml</dc:format><dc:type
           rdf:resource="http://purl.org/dc/dcmitype/StillImage" /><dc:title></dc:title></cc:Work></rdf:RDF></metadata><defs
     id="defs134"><linearGradient
       id="linearGradient884"
       osb:paint="solid"><stop
         style="stop-color:#000000;stop-opacity:1;"
         offset="0"
         id="stop882" /></linearGradient><linearGradient
       inkscape:collect="always"
       xlink:href="#linearGradient884"
       id="linearGradient886"
       x1="1.163"
       y1="366.00101"
       x2="510.836"
       y2="366.00101"
       gradientUnits="userSpaceOnUse" /></defs><sodipodi:namedview
     pagecolor="#ffffff"
     bordercolor="#666666"
     borderopacity="1"
     objecttolerance="10"
     gridtolerance="10"
     guidetolerance="10"
     inkscape:pageopacity="0"
     inkscape:pageshadow="2"
     inkscape:window-width="1920"
     inkscape:window-height="1001"
     id="namedview132"
     showgrid="true"
     inkscape:zoom="1.7953733"
     inkscape:cx="182.24129"
     inkscape:cy="251.68129"
     inkscape:window-x="-9"
     inkscape:window-y="-9"
     inkscape:window-maximized="1"
     inkscape:current-layer="svg130"
     inkscape:document-rotation="0"><inkscape:grid
       type="xygrid"
       id="grid974" /></sodipodi:namedview><path
     id="path170"
     style="fill:#744630;fill-opacity:1;stroke-width:1.04242"
     d="m 389.99924,289.99943 c 4.06337,79.14979 -75.58286,174.41664 -182.96091,173.8331 C 110.29982,463.30671 20.13571,402.47681 19.999961,290.1075"
     sodipodi:nodetypes="csc" /><g
     id="g128"
     transform="translate(-4.6457166,-23.131659)">

<g
   id="g84">
	
</g>
<g
   id="g90"
   style="stroke-width:0.599999;stroke-miterlimit:4;stroke-dasharray:none">
	<g
   id="g88"
   style="stroke-width:0.499999;stroke-miterlimit:4;stroke-dasharray:none">
		<path
   id="path86"
   style="stroke:url(#linearGradient886);stroke-width:0.999998;stroke-miterlimit:4;stroke-dasharray:none;stroke-opacity:1"
   d="m 398.55273,224.00586 c -127.50106,-0.008 -255.00296,-0.004 -382.504259,0.005 -5.296374,-0.0248 -10.2118504,4.32101 -10.7750335,9.59897 -0.2500795,2.70864 -0.039871,5.43407 -0.1114251,8.14999 0.010871,25.24368 -0.031396,50.48767 0.031633,75.73114 0.088353,6.04765 0.4741258,12.18183 1.1751161,18.25477 1.1291456,9.8745 3.0852786,19.78904 5.8343495,29.3944 1.077692,3.77136 2.31923,7.70867 3.680378,11.47784 5.03961,14.10932 11.801148,27.5955 20.024714,40.11686 14.398462,21.89389 33.375883,40.93819 55.169332,55.59525 7.073832,4.77954 14.489905,9.0189 21.750585,13.5024 -32.425713,0.005 -64.851945,-0.0177 -97.277339,0.0215 -4.836091,0.23512 -9.2236429,4.0232 -10.1480575,8.77979 -0.9328435,4.33025 0.9819479,9.13078 4.7342775,11.52428 2.212067,1.49527 4.937458,2.00808 7.570421,1.84241 127.987858,-0.002 255.975848,0.006 383.963628,-0.0112 4.81836,-0.11385 9.27405,-3.77439 10.3341,-8.47693 1.09019,-4.404 -0.81466,-9.38284 -4.65788,-11.83352 -2.21444,-1.49384 -4.94083,-2.01299 -7.57618,-1.84633 -31.74466,0 -63.48932,0 -95.23398,0 5.30138,-3.20651 10.72489,-6.41352 15.93164,-9.65039 27.98298,-17.46586 51.71355,-41.84927 67.8981,-70.63085 1.86838,-3.29614 3.59927,-6.66741 5.31088,-10.04688 14.32491,-0.0164 28.65076,0.0498 42.97505,-0.0453 1.75415,-0.0557 3.73442,-0.19036 5.59147,-0.40163 0.99007,-0.10617 2.17514,-0.2759 3.02825,-0.40132 1.30049,-0.20796 2.52501,-0.42869 3.86812,-0.71031 13.45531,-2.81789 26.03983,-9.57836 35.83798,-19.21819 2.23783,-2.18972 4.46292,-4.68486 6.31437,-7.04743 7.60447,-9.63026 12.70496,-21.21307 14.63086,-33.33399 0.049,-0.37086 0.18145,-1.18361 0.2308,-1.55576 0.31352,-2.24093 0.52033,-4.69192 0.6149,-6.829 0.58801,-13.63749 -2.71574,-27.43405 -9.56395,-39.25394 -7.4858,-13.03216 -19.08708,-23.67081 -32.75441,-29.93552 -1.11062,-0.50846 -2.45598,-1.09298 -3.68085,-1.57373 -1.70362,-0.66992 -3.431,-1.27501 -5.10432,-1.79699 -6.07137,-1.8751 -12.24526,-2.94387 -18.56248,-3.18201 -0.40421,-0.0158 -1.20009,-0.0376 -1.75422,-0.0557 -7.68039,-0.041 -15.36184,-1e-4 -23.04266,-0.0146 -0.0426,-5.44171 0.0815,-10.88679 -0.0742,-16.32617 -0.492,-5.05205 -4.89318,-9.41373 -9.97656,-9.75782 -1.23153,-0.10514 -2.46875,-0.0755 -3.70313,-0.0586 z M 29.330078,246.16992 c 120.268882,0 240.537762,0 360.806642,0 -0.011,23.58641 0.0171,47.17302 -0.0188,70.7593 -0.30817,25.83769 -6.99157,51.54675 -19.16869,74.32876 -13.81047,25.97253 -34.512,48.12107 -59.11638,64.17937 -25.5284,16.71375 -55.24344,26.89299 -85.62253,29.60018 -31.21617,2.84784 -63.15876,-1.97937 -91.99693,-14.32348 -29.3295,-12.48474 -55.428164,-32.69296 -74.380705,-58.36831 -15.428368,-20.83545 -26.036916,-45.28308 -30.283874,-70.88226 -1.732433,-10.26069 -2.370244,-20.68389 -2.218693,-31.08262 0,-21.40365 0,-42.80729 0,-64.21094 0.666667,0 1.333333,0 2,0 z m 396.787112,26.14063 c 4.07428,0.042 8.15662,-0.0939 12.22461,0.17187 12.57633,1.00367 24.65839,6.97367 33.12425,16.32382 8.19329,8.92869 13.0028,20.88708 13.19562,33.01106 0.25738,11.70264 -3.71984,23.44566 -11.07891,32.5545 -7.875,9.8665 -19.54701,16.63478 -32.05461,18.43291 -5.82578,0.83867 -11.72606,0.44199 -17.5887,0.53123 -7.03515,0 -14.07031,0 -21.10547,0 2.26879,-7.44226 4.43571,-14.92916 5.90579,-22.5767 1.45753,-7.24016 2.4694,-14.73492 3.02781,-21.99362 0.14532,-1.94338 0.26898,-4.07752 0.35937,-5.9082 0.32319,-9.05458 0.12009,-18.1172 0.17774,-27.17539 0,-7.78919 0,-15.57838 0,-23.36758 4.60417,-0.002 9.20833,0.009 13.8125,-0.004 z" />
	</g>
</g>
<g
   id="g96">
	
</g>
<g
   id="g98">
</g>
<g
   id="g100">
</g>
<g
   id="g102">
</g>
<g
   id="g104">
</g>
<g
   id="g106">
</g>
<g
   id="g108">
</g>
<g
   id="g110">
</g>
<g
   id="g112">
</g>
<g
   id="g114">
</g>
<g
   id="g116">
</g>
<g
   id="g118">
</g>
<g
   id="g120">
</g>
<g
   id="g122">
</g>
<g
   id="g124">
</g>
<g
   id="g126">
</g>
</g><g
     id="filled_outline"
     data-name="filled outline"
     transform="matrix(0.44529346,0,0,0.40792453,96.498943,-6.5216514)"><path
       d="M 451.39,256.63 C 406.15,327.14 332.47,363.14 274.88,347.3 a 94.8,94.8 0 0 1 -26.27,-11.68 q -2.16,-1.38 -4.21,-2.87 C 188.88,292.76 184.72,198.2 235.95,118.37 285.95,40.45 370.69,4.66 430.05,34.44 a 94.408,94.408 0 0 1 25.49,18.69 c 43.23,44.5 42.89,130.21 -4.15,203.5 z"
       fill="#623b28"
       id="path2" /><path
       d="m 455.54,53.13 -15.09,14.73 a 231.663,231.663 0 0 0 -66.39,126.08 231.646,231.646 0 0 1 -86.7,143.73 l -12.48,9.63 a 94.8,94.8 0 0 1 -26.27,-11.68 q -2.16,-1.38 -4.21,-2.87 l 16.02,-12.36 A 231.636,231.636 0 0 0 347.13,176.66 231.608,231.608 0 0 1 413.52,50.58 l 16.53,-16.14 a 94.408,94.408 0 0 1 25.49,18.69 z"
       fill="#855037"
       id="path4" /><path
       d="m 219.329,468.1 a 95.025,95.025 0 0 1 -26.81,10.37 c -1.67,0.37 -3.33,0.69 -5,0.96 -67.53,11.11 -137.46,-52.66 -157.87,-145.3 -19.93,-90.41 14.52,-175.71 77.5,-196.75 a 91.258,91.258 0 0 1 9.63,-2.67 94.872,94.872 0 0 1 21.61,-2.21 c 62.03,0.78 122.52,61.5 141.26,146.55 18.02,81.81 -8.46,159.43 -60.32,189.05 z"
       fill="#744630"
       id="path6" /><path
       d="m 221.309,452.46 -1.98,15.64 a 95.025,95.025 0 0 1 -26.81,10.37 c -1.67,0.37 -3.33,0.69 -5,0.96 l 2.54,-20.08 a 232.121,232.121 0 0 0 1.84,-29.15 231.631,231.631 0 0 0 -42.49,-133.71 231.59,231.59 0 0 1 -42.48,-136.01 l 0.22,-23.1 a 91.258,91.258 0 0 1 9.63,-2.67 94.872,94.872 0 0 1 21.61,-2.21 l -0.21,21.09 c -0.01,0.78 -0.01,1.55 -0.01,2.33 a 231.584,231.584 0 0 0 42.49,133.68 231.655,231.655 0 0 1 40.65,162.86 z"
       fill="#8f563b"
       id="path8" /><path
       d="m 171.961,488.7 a 103.659,103.659 0 0 0 16.835,-1.374 c 1.786,-0.289 3.622,-0.641 5.442,-1.045 A 103.262,103.262 0 0 0 223.3,475.046 c 27.053,-15.451 48.362,-43.658 60,-79.425 a 203.035,203.035 0 0 0 8.271,-37.188 c 3.857,0.377 7.749,0.587 11.679,0.587 23.832,0 48.867,-6.891 73.462,-20.345 31.792,-17.391 59.943,-44.268 81.409,-77.725 48.517,-75.59 49.844,-165.336 3.163,-213.389 A 102.388,102.388 0 0 0 433.637,27.29 c -30.955,-15.531 -69.063,-15.041 -107.3,1.377 -37.676,16.175 -72.165,46.5 -97.116,85.382 a 248.086,248.086 0 0 0 -19.182,36.1 c -21.863,-16.077 -46.4,-25.332 -71.548,-25.649 a 103.012,103.012 0 0 0 -23.426,2.4 99.866,99.866 0 0 0 -10.449,2.9 c -32.844,10.973 -59.388,38.318 -74.741,77 -15.13,38.1 -17.984,83.936 -8.039,129.051 19.678,89.315 83.6,152.849 150.125,152.849 z M 455.127,64.712 c 16.139,19.931 24.679,47.725 24.189,79.247 -0.556,35.916 -12.866,74.4 -34.66,108.351 -20.024,31.209 -46.174,56.22 -75.622,72.329 -25.084,13.721 -51.387,19.966 -75,17.955 a 239.052,239.052 0 0 0 87.91,-147.286 223.685,223.685 0 0 1 64.1,-121.724 z M 419.108,56.3 431.416,44.283 c 1,0.589 2.006,1.194 3,1.827 a 86.547,86.547 0 0 1 9.568,7.122 l -9.118,8.9 a 239.671,239.671 0 0 0 -68.688,130.438 223.059,223.059 0 0 1 -72.97,129.923 q -0.324,-9.708 -1.457,-19.543 A 239.189,239.189 0 0 0 355.012,178.029 222.3,222.3 0 0 1 419.108,56.3 Z M 242.684,122.69 C 286.942,53.718 360.74,18.1 415.848,37.126 l -7.917,7.73 a 238.192,238.192 0 0 0 -68.683,130.435 223.076,223.076 0 0 1 -50.677,107.374 c -0.353,-1.778 -0.718,-3.557 -1.11,-5.336 -10.605,-48.132 -34.258,-89.2 -64.513,-116.609 a 231.16,231.16 0 0 1 19.736,-38.03 z m -96.5,30.979 0.126,-12.7 c 25.508,2.634 51.226,16.2 73.215,38.786 25.055,25.741 43.634,61.617 52.316,101.018 8.334,37.836 7,76.866 -3.749,109.9 -8.229,25.281 -21.66,46.215 -38.582,60.535 A 239.064,239.064 0 0 0 187.19,284.982 222.415,222.415 0 0 1 146.169,155.92 c 0,-0.746 0,-1.483 0.01,-2.251 z m -31.25,6.887 0.163,-17.2 c 1.129,-0.3 2.263,-0.579 3.405,-0.83 a 86.949,86.949 0 0 1 11.809,-1.755 l -0.126,12.722 c -0.011,0.814 -0.011,1.616 -0.011,2.43 a 238.328,238.328 0 0 0 43.956,138.3 223.134,223.134 0 0 1 39.247,157.239 l -1.463,11.561 a 87.312,87.312 0 0 1 -15.017,6.057 l 1.1,-8.719 a 240.977,240.977 0 0 0 1.9,-30.155 A 238.346,238.346 0 0 0 155.94,291.872 222.252,222.252 0 0 1 114.929,160.556 Z m -15.9,-11.219 -0.105,11.063 a 238.158,238.158 0 0 0 43.947,140.71 222.434,222.434 0 0 1 41.024,129.09 224.921,224.921 0 0 1 -1.776,28.146 l -1.764,13.947 c -28.477,2.7 -58.094,-8.694 -84.035,-32.5 C 67.87,413.678 46.966,375.542 37.463,332.409 19.82,252.382 46.656,174.965 99.034,149.337 Z"
       id="path18" /></g><path
     style="fill:#e2c297;fill-opacity:0.310627;stroke:none;stroke-width:0.999998;stroke-linecap:butt;stroke-linejoin:miter;stroke-miterlimit:4;stroke-dasharray:none;stroke-opacity:1"
     d="M 242.57557,432.53819 C 290.15064,420.53501 352.45158,285.15731 355.34554,244.75315 l -52.70528,-0.0305 c -3.28544,34.36854 -34.66791,169.54926 -60.06469,187.81555 z"
     id="path960"
     sodipodi:nodetypes="ccccc" /></svg>
