<?xml version="1.0" encoding="UTF-8" standalone="no"?>
<svg
   xmlns:dc="http://purl.org/dc/elements/1.1/"
   xmlns:cc="http://creativecommons.org/ns#"
   xmlns:rdf="http://www.w3.org/1999/02/22-rdf-syntax-ns#"
   xmlns:svg="http://www.w3.org/2000/svg"
   xmlns="http://www.w3.org/2000/svg"
   xmlns:sodipodi="http://sodipodi.sourceforge.net/DTD/sodipodi-0.dtd"
   xmlns:inkscape="http://www.inkscape.org/namespaces/inkscape"
   version="1.1"
   id="Layer_1"
   x="0px"
   y="0px"
   viewBox="0 0 505.003 505.003"
   style="enable-background:new 0 0 505.003 505.003;"
   xml:space="preserve"
   width="512"
   height="512"
   sodipodi:docname="headache_type_tmj.svg"
   inkscape:version="1.0.2-2 (e86c870879, 2021-01-15)"><metadata
   id="metadata57"><rdf:RDF><cc:Work
       rdf:about=""><dc:format>image/svg+xml</dc:format><dc:type
         rdf:resource="http://purl.org/dc/dcmitype/StillImage" /><dc:title></dc:title></cc:Work></rdf:RDF></metadata><defs
   id="defs55"><filter
     inkscape:collect="always"
     style="color-interpolation-filters:sRGB"
     id="filter966"
     x="-0.48117452"
     width="1.962349"
     y="-0.48117452"
     height="1.962349"><feGaussianBlur
       inkscape:collect="always"
       stdDeviation="14.318593"
       id="feGaussianBlur968" /></filter><filter
     inkscape:collect="always"
     style="color-interpolation-filters:sRGB"
     id="filter966-3"
     x="-0.48117453"
     width="1.9623491"
     y="-0.48117453"
     height="1.9623491"><feGaussianBlur
       inkscape:collect="always"
       stdDeviation="14.318593"
       id="feGaussianBlur968-3" /></filter></defs><sodipodi:namedview
   pagecolor="#ffffff"
   bordercolor="#666666"
   borderopacity="1"
   objecttolerance="10"
   gridtolerance="10"
   guidetolerance="10"
   inkscape:pageopacity="0"
   inkscape:pageshadow="2"
   inkscape:window-width="1920"
   inkscape:window-height="1001"
   id="namedview53"
   showgrid="false"
   inkscape:zoom="0.81054688"
   inkscape:cx="18.749374"
   inkscape:cy="415.98764"
   inkscape:window-x="-9"
   inkscape:window-y="-9"
   inkscape:window-maximized="1"
   inkscape:current-layer="g48" />
<g
   id="g50">
	<g
   id="g14">
		<path
   style="fill:#FFD0A6;"
   d="M497.5,275.971c0,30.517-23.502,55.526-53.386,57.917c-1.559,0.132-3.144,0.198-4.729,0.198    c-4.069,0-8.032-0.41-11.863-1.215H77.482c-3.831,0.806-7.795,1.215-11.864,1.215h-0.04C33.49,334.06,7.503,308.061,7.503,275.971    c0-30.253,23.119-55.103,52.659-57.838c1.797-0.185,3.62-0.264,5.456-0.264c2.444,0,4.835,0.145,7.2,0.436h359.366    c2.365-0.291,4.756-0.436,7.2-0.436c3.448,0,6.83,0.304,10.106,0.885C476.772,223.523,497.5,247.329,497.5,275.971z"
   id="path2" />
		<path
   style="fill:#E8B182;"
   d="M449.491,218.754v73.612c0,14.294-1.863,28.206-5.377,41.522c-1.559,0.132-3.144,0.198-4.729,0.198    c-4.069,0-8.032-0.41-11.863-1.215H77.482c-3.831,0.806-7.795,1.215-11.864,1.215h-0.04c-3.54-13.383-5.416-27.347-5.416-41.72    v-74.233c1.797-0.185,3.62-0.264,5.456-0.264c2.444,0,4.835,0.145,7.2,0.436h359.366c2.365-0.291,4.756-0.436,7.2-0.436    C442.833,217.869,446.215,218.173,449.491,218.754z"
   id="path4" />
		<path
   style="fill:#E8B182;"
   d="M432.182,192.12v120.775c0,86.426-61.828,158.413-143.67,174.148    c-10.899,2.1-22.168,3.197-33.688,3.197c-97.947,0-177.345-79.398-177.345-177.345V192.12    c0-97.946,79.398-177.358,177.345-177.358c11.52,0,22.789,1.097,33.688,3.197c35.472,6.817,67.178,24.203,91.724,48.749    C412.325,98.811,432.182,143.147,432.182,192.12z"
   id="path6" />
		<path
   style="fill:#FFD0A6;"
   d="M432.182,192.12v120.775c0,86.426-61.828,158.413-143.67,174.148    c-81.842-15.735-143.67-87.721-143.67-174.148V192.12c0-86.426,61.828-158.426,143.67-174.161    c35.472,6.817,67.178,24.203,91.724,48.749C412.325,98.811,432.182,143.147,432.182,192.12z"
   id="path8" />
		<path
   style="fill:#5B5B68;"
   d="M432.184,192.12v26.184c-209.963-0.264-279.757-86.136-279.757-86.136    c0,35.67-35.67,73.308-74.946,86.136V192.12c0-97.946,79.398-177.358,177.345-177.358c11.52,0,22.789,1.097,33.688,3.197    c35.472,6.817,67.178,24.203,91.724,48.749C412.328,98.811,432.184,143.147,432.184,192.12z"
   id="path10" />
		<path
   style="fill:#40404C;"
   d="M288.507,17.96C225.794,30.022,174.84,75.111,154.429,134.415c-1.361-1.44-2.008-2.246-2.008-2.246    c0,35.67-35.67,73.308-74.946,86.136V192.12c0-97.946,79.398-177.358,177.345-177.358    C266.339,14.763,277.608,15.859,288.507,17.96z"
   id="path12" />
	</g>
	<g
   id="g48">
		<path
   d="M439.682,210.378v-18.257c0-49.364-19.228-95.786-54.143-130.715c-26.268-26.268-59.33-43.838-95.608-50.81    c-11.474-2.212-23.286-3.333-35.107-3.333c-45.353,0-88.973,16.588-122.823,46.709c-3.095,2.753-3.371,7.494-0.618,10.589    c2.754,3.094,7.495,3.371,10.588,0.617c31.102-27.674,71.18-42.915,112.853-42.915c10.871,0,21.728,1.03,32.272,3.063    c33.325,6.404,63.698,22.548,87.835,46.686c32.082,32.095,49.75,74.751,49.75,120.11v18.625    c-102.037-1.166-168.595-23.235-206.722-41.809c-33.744-16.438-53.824-34.344-59.712-41.498c-2.002-2.463-5.339-3.4-8.33-2.337    c-2.992,1.062-4.99,3.893-4.99,7.067c0,15.039-7.4,31.601-20.837,46.636c-10.736,12.013-24.604,22.082-39.111,28.565v-15.25    c0-36.72,11.526-71.671,33.331-101.076c2.467-3.327,1.77-8.024-1.557-10.492c-3.326-2.465-8.024-1.771-10.492,1.557    c-23.736,32.008-36.282,70.049-36.282,110.01v18.393c-1.448-0.094-2.906-0.145-4.363-0.145C29.435,210.369,0,239.797,0,275.971    c0,36.18,29.435,65.615,65.616,65.615c2.195,0,4.379-0.113,6.539-0.327c13.688,88.507,90.388,156.481,182.669,156.481    c11.821,0,23.633-1.121,35.104-3.332c6.564-1.262,13.127-2.901,19.508-4.871c3.958-1.222,6.176-5.421,4.954-9.378    c-1.222-3.958-5.422-6.176-9.378-4.954c-5.86,1.809-11.887,3.314-17.919,4.474c-10.541,2.031-21.398,3.062-32.269,3.062    c-93.653,0-169.845-76.192-169.845-169.845v-89.305c18.787-7.137,36.486-19.338,50.296-34.791    c11.466-12.83,19.217-26.869,22.646-40.727c9.934,8.655,26.824,21.239,52.337,33.793c39.646,19.509,108.773,42.693,214.423,43.877    v87.151c0,32.045-8.968,63.251-25.934,90.245c-16.514,26.274-39.863,47.538-67.524,61.491c-3.698,1.866-5.184,6.376-3.318,10.074    c1.319,2.615,3.96,4.124,6.702,4.124c1.136,0,2.289-0.259,3.372-0.805c30.097-15.182,55.502-38.316,73.468-66.901    c13.36-21.257,22.161-44.91,26.011-69.568c0.64,0.019,1.281,0.035,1.925,0.035c36.183,0,65.62-29.437,65.62-65.62    C505.003,239.899,475.727,210.54,439.682,210.378z M65.616,326.586C37.706,326.586,15,303.88,15,275.971    c0-27.902,22.706-50.602,50.616-50.602c1.465,0,2.921,0.083,4.363,0.205v30.251c-11.42-0.493-26.156,3.145-33.008,18.904    c-1.652,3.799,0.089,8.217,3.887,9.869c0.974,0.423,1.989,0.624,2.987,0.624c2.896,0,5.654-1.687,6.882-4.511    c4.065-9.352,13.243-10.355,19.252-9.888v42.074c0,4.524,0.171,9.01,0.492,13.454C68.869,326.501,67.249,326.586,65.616,326.586z     M439.383,326.59c-0.07,0-0.139-0.003-0.21-0.004c0.335-4.542,0.508-9.108,0.508-13.69v-42.071    c5.962-0.453,15.186,0.534,19.252,9.885c1.228,2.825,3.986,4.511,6.882,4.511c0.998,0,2.013-0.201,2.987-0.624    c3.798-1.651,5.539-6.07,3.887-9.869c-6.852-15.758-21.588-19.396-33.008-18.904v-30.446    c27.775,0.162,50.322,22.792,50.322,50.593C490.003,303.882,467.295,326.59,439.383,326.59z"
   id="path16" />
		<path
   d="M170.067,249.475v33.594c0,4.142,3.358,7.5,7.5,7.5s7.5-3.358,7.5-7.5v-33.594c0-4.142-3.358-7.5-7.5-7.5    S170.067,245.333,170.067,249.475z"
   id="path18" />
		
		<path
   d="M297.776,397.375c1.919,0,3.839-0.732,5.303-2.197c2.929-2.929,2.929-7.678,0-10.606    c-26.765-26.765-70.313-26.764-97.078,0c-2.929,2.929-2.929,7.678,0,10.606c2.929,2.929,7.678,2.929,10.606,0    c20.917-20.917,54.949-20.916,75.865,0C293.938,396.642,295.857,397.375,297.776,397.375z"
   id="path22" />
		
		
		
		
		
		
		
		
		
		
		
		
	<circle
   style="fill:#b80000;stroke-width:5.59181;stroke-linecap:round;filter:url(#filter966)"
   id="path882"
   cx="330.74258"
   cy="269.54559"
   r="35.709106"
   transform="matrix(0.61798406,0,0,0.93257892,-84.544361,15.76989)" /><path
   d="M339.593,283.068v-33.594c0-4.142-3.358-7.5-7.5-7.5s-7.5,3.358-7.5,7.5v33.594c0,4.142,3.358,7.5,7.5,7.5    S339.593,287.21,339.593,283.068z"
   id="path20" /><circle
   style="fill:#b80000;stroke-width:5.59181;stroke-linecap:round;filter:url(#filter966-3)"
   id="path882-7"
   cx="330.74258"
   cy="269.54559"
   r="35.709106"
   transform="matrix(0.61798406,0,0,0.93257892,181.35563,13.906146)" /></g>
</g>















</svg>
