<?xml version="1.0" encoding="UTF-8" standalone="no"?>
<svg
   xmlns:dc="http://purl.org/dc/elements/1.1/"
   xmlns:cc="http://creativecommons.org/ns#"
   xmlns:rdf="http://www.w3.org/1999/02/22-rdf-syntax-ns#"
   xmlns:svg="http://www.w3.org/2000/svg"
   xmlns="http://www.w3.org/2000/svg"
   xmlns:sodipodi="http://sodipodi.sourceforge.net/DTD/sodipodi-0.dtd"
   xmlns:inkscape="http://www.inkscape.org/namespaces/inkscape"
   version="1.1"
   id="Layer_1"
   x="0px"
   y="0px"
   viewBox="0 0 505.003 505.003"
   style="enable-background:new 0 0 505.003 505.003;"
   xml:space="preserve"
   width="512"
   height="512"
   sodipodi:docname="headache_type_hypertension.svg"
   inkscape:version="1.0.2-2 (e86c870879, 2021-01-15)"
   inkscape:export-filename="C:\Users\Thierry\OneDrive\Documents\HES_SO_master\2_IUAM\IDAche_newVersion\IDAche\IDAche\Image\headache_type\headache_type_hypertension.png"
   inkscape:export-xdpi="96"
   inkscape:export-ydpi="96"><metadata
   id="metadata57"><rdf:RDF><cc:Work
       rdf:about=""><dc:format>image/svg+xml</dc:format><dc:type
         rdf:resource="http://purl.org/dc/dcmitype/StillImage" /><dc:title /></cc:Work></rdf:RDF></metadata><defs
   id="defs55"><filter
     inkscape:collect="always"
     style="color-interpolation-filters:sRGB"
     id="filter1953"
     x="-0.30188383"
     width="1.6037677"
     y="-0.30188383"
     height="1.6037677"><feGaussianBlur
       inkscape:collect="always"
       stdDeviation="26.05385"
       id="feGaussianBlur1955" /></filter></defs><sodipodi:namedview
   pagecolor="#ffffff"
   bordercolor="#666666"
   borderopacity="1"
   objecttolerance="10"
   gridtolerance="10"
   guidetolerance="10"
   inkscape:pageopacity="0"
   inkscape:pageshadow="2"
   inkscape:window-width="1920"
   inkscape:window-height="1001"
   id="namedview53"
   showgrid="false"
   inkscape:zoom="0.81054688"
   inkscape:cx="92.454096"
   inkscape:cy="221.4996"
   inkscape:window-x="-9"
   inkscape:window-y="-9"
   inkscape:window-maximized="1"
   inkscape:current-layer="g50"
   inkscape:document-rotation="0" />
<g
   id="g50">
	<g
   id="g14">
		<path
   style="fill:#FFD0A6;"
   d="M497.5,275.971c0,30.517-23.502,55.526-53.386,57.917c-1.559,0.132-3.144,0.198-4.729,0.198    c-4.069,0-8.032-0.41-11.863-1.215H77.482c-3.831,0.806-7.795,1.215-11.864,1.215h-0.04C33.49,334.06,7.503,308.061,7.503,275.971    c0-30.253,23.119-55.103,52.659-57.838c1.797-0.185,3.62-0.264,5.456-0.264c2.444,0,4.835,0.145,7.2,0.436h359.366    c2.365-0.291,4.756-0.436,7.2-0.436c3.448,0,6.83,0.304,10.106,0.885C476.772,223.523,497.5,247.329,497.5,275.971z"
   id="path2" />
		<path
   style="fill:#E8B182;"
   d="M449.491,218.754v73.612c0,14.294-1.863,28.206-5.377,41.522c-1.559,0.132-3.144,0.198-4.729,0.198    c-4.069,0-8.032-0.41-11.863-1.215H77.482c-3.831,0.806-7.795,1.215-11.864,1.215h-0.04c-3.54-13.383-5.416-27.347-5.416-41.72    v-74.233c1.797-0.185,3.62-0.264,5.456-0.264c2.444,0,4.835,0.145,7.2,0.436h359.366c2.365-0.291,4.756-0.436,7.2-0.436    C442.833,217.869,446.215,218.173,449.491,218.754z"
   id="path4" />
		<path
   style="fill:#E8B182;"
   d="M432.182,192.12v120.775c0,86.426-61.828,158.413-143.67,174.148    c-10.899,2.1-22.168,3.197-33.688,3.197c-97.947,0-177.345-79.398-177.345-177.345V192.12    c0-97.946,79.398-177.358,177.345-177.358c11.52,0,22.789,1.097,33.688,3.197c35.472,6.817,67.178,24.203,91.724,48.749    C412.325,98.811,432.182,143.147,432.182,192.12z"
   id="path6" />
		<path
   style="fill:#FFD0A6;"
   d="M432.182,192.12v120.775c0,86.426-61.828,158.413-143.67,174.148    c-81.842-15.735-143.67-87.721-143.67-174.148V192.12c0-86.426,61.828-158.426,143.67-174.161    c35.472,6.817,67.178,24.203,91.724,48.749C412.325,98.811,432.182,143.147,432.182,192.12z"
   id="path8" />
		<path
   style="fill:#5b5b68"
   d="m 432.184,192.12 v 26.184 c -146.32887,212.14256 -331.85848,34.56846 -354.703,0 V 192.12 c 0,-97.946 79.398,-177.358 177.345,-177.358 11.52,0 22.789,1.097 33.688,3.197 35.472,6.817 67.178,24.203 91.724,48.749 32.09,32.103 51.946,76.439 51.946,125.412 z"
   id="path10"
   sodipodi:nodetypes="sccssccs" />
		<path
   style="fill:#40404c"
   d="M 288.507,17.96 C 225.794,30.022 174.84,89.10506 154.429,148.40906 c 2.08084,-11.76552 -8.48461,107.74095 -8.48461,107.74095 0,66.81279 -28.76316,-23.56851 -68.03916,-10.74051 L 77.475,192.12 C 76.684264,94.177192 156.873,14.762 254.82,14.762 c 11.519,10e-4 22.788,1.097 33.687,3.198 z"
   id="path12"
   sodipodi:nodetypes="ccccscc" />
	</g>
	<g
   id="g48">
		<path
   d="m 439.682,210.378 v -18.257 c 0,-49.364 -19.228,-95.786 -54.143,-130.715 -26.268,-26.268 -59.33,-43.838 -95.608,-50.81 -11.474,-2.212 -23.286,-3.333 -35.107,-3.333 -45.353,0 -88.973,16.588 -122.823,46.709 -3.095,2.753 -3.371,7.494 -0.618,10.589 2.754,3.094 7.495,3.371 10.588,0.617 31.102,-27.674 71.18,-42.915 112.853,-42.915 10.871,0 21.728,1.03 32.272,3.063 33.325,6.404 63.698,22.548 87.835,46.686 32.082,32.095 50.61046,104.87236 50.61046,150.23136 C 256.35437,382.70942 166.76887,289.2929 84.979,227.44943 V 192.121 c 0,-36.72 11.526,-71.671 33.331,-101.076 2.467,-3.327 1.77,-8.024 -1.557,-10.492 -3.326,-2.465 -8.024,-1.771 -10.492,1.557 -23.736,32.008 -36.282,70.049 -36.282,110.01 v 18.393 c -1.448,-0.094 -2.906,-0.145 -4.363,-0.145 C 29.435,210.369 0,239.797 0,275.971 c 0,36.18 29.435,65.615 65.616,65.615 2.195,0 4.379,-0.113 6.539,-0.327 13.688,88.507 90.388,156.481 182.669,156.481 11.821,0 23.633,-1.121 35.104,-3.332 6.564,-1.262 13.127,-2.901 19.508,-4.871 3.958,-1.222 6.176,-5.421 4.954,-9.378 -1.222,-3.958 -5.422,-6.176 -9.378,-4.954 -5.86,1.809 -11.887,3.314 -17.919,4.474 -10.541,2.031 -21.398,3.062 -32.269,3.062 -93.653,0 -169.845,-76.192 -169.845,-169.845 v -63.75063 c 115.67246,102.27966 197.75676,120.5073 340.31044,-1.49863 L 424.681,312.894 c -0.29881,32.04361 -8.968,63.251 -25.934,90.245 -16.514,26.274 -39.863,47.538 -67.524,61.491 -3.698,1.866 -5.184,6.376 -3.318,10.074 1.319,2.615 3.96,4.124 6.702,4.124 1.136,0 2.289,-0.259 3.372,-0.805 30.097,-15.182 55.502,-38.316 73.468,-66.901 13.36,-21.257 22.161,-44.91 26.011,-69.568 0.64,0.019 1.281,0.035 1.925,0.035 36.183,0 65.62,-29.437 65.62,-65.62 0,-36.07 -29.276,-65.429 -65.321,-65.591 z M 65.616,326.586 C 37.706,326.586 15,303.88 15,275.971 c 0,-27.902 22.706,-50.602 50.616,-50.602 1.465,0 2.921,0.083 4.363,0.205 -0.87422,59.2091 -0.922868,53.55876 0,87.323 0,4.524 0.171,9.01 0.492,13.454 -1.602,0.15 -3.222,0.235 -4.855,0.235 z m 373.767,0.004 c -0.07,0 -0.139,-0.003 -0.21,-0.004 0.335,-4.542 0.508,-9.108 0.508,-13.69 0.22825,-52.84014 0,-44.75487 0,-87.518 27.775,0.162 50.322,22.792 50.322,50.593 0,27.911 -22.708,50.619 -50.62,50.619 z"
   id="path16"
   sodipodi:nodetypes="csccscccsccccscccsccsscscscccssccscccscccsscssscccsscccss" />
		
		
		
		
		
		
		
		
		
		
		
		
		
		
		
	</g>
<circle
   style="fill:#b80000;stroke-width:9.03397;stroke-linecap:round;filter:url(#filter1953)"
   id="path1721"
   cy="168.96005"
   cx="254.14561"
   r="103.56507"
   transform="matrix(0.84107172,0,0,0.81677228,36.517276,27.895525)" /></g>















</svg>
